# xmcd
#
# Track frame offsets:
#	150
#	13000
#	25375
#	40415
#	52350
#	64015
#	79120
#	95025
#	108180
#	124385
#	141945
#	155485
#	164160
#	181650
#	195515
#	208000
#	223850
#	238840
#	249030
#	263960
#
# Disc length: 3667 seconds
#
# Revision: 1
# Processed by: cddbd v1.5.2PL0 Copyright (c) Steve Scherf et al.
# Submitted via: EasyCDDAExtractor 2010.6.0.0
#
DISCID=2b0e5114
DTITLE=LEO CANHOTO and ROBERTINHO - 20 PREFERIDAS [RGE] 1996
DYEAR=1996
DGENRE=SERTANEJO
TTITLE0=CINCO BEIJOS (BY DJ GILMAR SINISTRO)
TTITLE1=TIRO E QUEDA (BY DJ GILMAR SINISTRO)
TTITLE2=QUE O MAL PAGUE ELAS [AUNQUE MAL PAGUEN ELLAS] [PART.ESP.JOSÉ RICO](BY
TTITLE2=DJ GILMAR SINISTRO)
TTITLE3=RASTO DA ROLINHA (BY DJ GILMAR SINISTRO)
TTITLE4=SOMOS IGUAIS (BY DJ GILMAR SINISTRO)
TTITLE5=NÃO VOLTE JESUS CRISTO (BY DJ GILMAR SINISTRO)
TTITLE6=VIAGEM (BY DJ GILMAR SINISTRO)
TTITLE7=HOMEM OBJETO (BY DJ GILMAR SINISTRO)
TTITLE8=LÁGRIMAS DO CORAÇÃO [SPANISH EYES](BY DJ GILMAR SINISTRO)
TTITLE9=CAMINHO DA PAZ (BY DJ GILMAR SINISTRO)
TTITLE10=GRITO NA NOITE (BY DJ GILMAR SINISTRO)
TTITLE11=O MACHÃO DA NOITE (BY DJ GILMAR SINISTRO)
TTITLE12=CANÇÃO PARA UM MUNDO MELHOR (BY DJ GILMAR SINISTRO)
TTITLE13=CORRE-CORRE (BY DJ GILMAR SINISTRO)
TTITLE14=NO PÉ DO OUVIDO (BY DJ GILMAR SINISTRO)
TTITLE15=KID BOCADURA (BY DJ GILMAR SINISTRO)
TTITLE16=PÁGINA SOLTA (BY DJ GILMAR SINISTRO)
TTITLE17=CINCO VEZES POR NOITE (BY DJ GILMAR SINISTRO)
TTITLE18=SEM REVANCHE (BY DJ GILMAR SINISTRO)
TTITLE19=BANHO DE BACIA (BY DJ GILMAR SINISTRO)
EXTD=
EXTT0=
EXTT1=
EXTT2=
EXTT3=
EXTT4=
EXTT5=
EXTT6=
EXTT7=
EXTT8=
EXTT9=
EXTT10=
EXTT11=
EXTT12=
EXTT13=
EXTT14=
EXTT15=
EXTT16=
EXTT17=
EXTT18=
EXTT19=
PLAYORDER=
